<svg width="248" height="278" viewBox="0 0 248 278" fill="none" xmlns="http://www.w3.org/2000/svg">
<rect width="248" height="278" rx="12" fill="#676767"/>
<path d="M136.5 109.5C135.229 109.5 134.063 108.771 133.479 107.646L131.979 104.625C131.021 102.729 128.521 101.167 126.396 101.167H121.625C119.479 101.167 116.979 102.729 116.021 104.625L114.521 107.646C113.938 108.771 112.771 109.5 111.5 109.5C106.979 109.5 103.396 113.312 103.688 117.812L104.771 135.021C105.021 139.312 107.333 142.833 113.083 142.833H134.917C140.667 142.833 142.958 139.312 143.229 135.021L144.313 117.812C144.604 113.312 141.021 109.5 136.5 109.5ZM120.875 112.104H127.125C127.979 112.104 128.688 112.812 128.688 113.667C128.688 114.521 127.979 115.229 127.125 115.229H120.875C120.021 115.229 119.313 114.521 119.313 113.667C119.313 112.812 120.021 112.104 120.875 112.104ZM124 134.75C120.125 134.75 116.958 131.604 116.958 127.708C116.958 123.812 120.104 120.667 124 120.667C127.896 120.667 131.042 123.812 131.042 127.708C131.042 131.604 127.875 134.75 124 134.75Z" fill="#1E1E1E"/>
<path d="M63.918 164.76V170.36C63.918 171.62 63.582 172.567 62.91 173.202C62.238 173.827 61.258 174.14 59.97 174.14C58.682 174.14 57.702 173.827 57.03 173.202C56.358 172.567 56.022 171.62 56.022 170.36V164.76H57.954V170.276C57.954 171.051 58.1173 171.625 58.444 171.998C58.78 172.371 59.2887 172.558 59.97 172.558C60.6513 172.558 61.1553 172.371 61.482 171.998C61.8087 171.625 61.972 171.051 61.972 170.276V164.76H63.918ZM65.9064 176.94V167H67.6284L67.7544 169.226L67.5164 168.974C67.6004 168.563 67.7544 168.199 67.9784 167.882C68.2118 167.565 68.5058 167.317 68.8604 167.14C69.2151 166.953 69.6118 166.86 70.0504 166.86C70.6198 166.86 71.1284 167.005 71.5764 167.294C72.0244 167.583 72.3744 167.999 72.6264 168.54C72.8878 169.072 73.0184 169.721 73.0184 170.486C73.0184 171.251 72.8878 171.909 72.6264 172.46C72.3651 173.001 72.0058 173.417 71.5484 173.706C71.1004 173.995 70.5871 174.14 70.0084 174.14C69.3924 174.14 68.8791 173.967 68.4684 173.622C68.0671 173.277 67.7918 172.843 67.6424 172.32L67.8244 172.026V176.94H65.9064ZM69.4484 172.67C69.9618 172.67 70.3631 172.488 70.6524 172.124C70.9511 171.751 71.1004 171.209 71.1004 170.5C71.1004 169.791 70.9558 169.254 70.6664 168.89C70.3864 168.517 69.9898 168.33 69.4764 168.33C69.1498 168.33 68.8604 168.419 68.6084 168.596C68.3658 168.764 68.1744 169.011 68.0344 169.338C67.8944 169.655 67.8244 170.043 67.8244 170.5C67.8244 170.948 67.8898 171.335 68.0204 171.662C68.1511 171.989 68.3378 172.241 68.5804 172.418C68.8324 172.586 69.1218 172.67 69.4484 172.67ZM76.5738 163.934V171.844C76.5738 172.171 76.6298 172.399 76.7418 172.53C76.8538 172.661 77.0404 172.726 77.3018 172.726C77.4604 172.726 77.5911 172.717 77.6938 172.698C77.7964 172.67 77.9271 172.633 78.0858 172.586L77.9178 173.846C77.7591 173.939 77.5584 174.009 77.3158 174.056C77.0824 174.112 76.8491 174.14 76.6158 174.14C75.9344 174.14 75.4351 173.977 75.1178 173.65C74.8098 173.314 74.6558 172.782 74.6558 172.054V163.934H76.5738ZM82.3465 166.86C83.0558 166.86 83.6765 167.005 84.2085 167.294C84.7498 167.583 85.1698 167.999 85.4685 168.54C85.7765 169.081 85.9305 169.735 85.9305 170.5C85.9305 171.256 85.7765 171.909 85.4685 172.46C85.1698 173.001 84.7498 173.417 84.2085 173.706C83.6765 173.995 83.0558 174.14 82.3465 174.14C81.6465 174.14 81.0258 173.995 80.4845 173.706C79.9432 173.417 79.5185 173.001 79.2105 172.46C78.9118 171.909 78.7625 171.256 78.7625 170.5C78.7625 169.735 78.9118 169.081 79.2105 168.54C79.5185 167.999 79.9432 167.583 80.4845 167.294C81.0258 167.005 81.6465 166.86 82.3465 166.86ZM82.3465 168.288C81.9918 168.288 81.6885 168.372 81.4365 168.54C81.1938 168.699 81.0072 168.941 80.8765 169.268C80.7458 169.595 80.6805 170.005 80.6805 170.5C80.6805 170.995 80.7458 171.405 80.8765 171.732C81.0072 172.059 81.1938 172.306 81.4365 172.474C81.6885 172.633 81.9918 172.712 82.3465 172.712C82.6918 172.712 82.9858 172.633 83.2285 172.474C83.4805 172.306 83.6718 172.059 83.8025 171.732C83.9332 171.405 83.9985 170.995 83.9985 170.5C83.9985 170.005 83.9332 169.595 83.8025 169.268C83.6718 168.941 83.4805 168.699 83.2285 168.54C82.9858 168.372 82.6918 168.288 82.3465 168.288ZM91.4843 169.534C91.4843 169.133 91.3677 168.82 91.1343 168.596C90.9103 168.372 90.6117 168.26 90.2383 168.26C89.893 168.26 89.5897 168.349 89.3283 168.526C89.067 168.703 88.8757 168.997 88.7543 169.408L87.1163 168.904C87.275 168.288 87.6203 167.793 88.1523 167.42C88.6937 167.047 89.417 166.86 90.3223 166.86C90.9383 166.86 91.475 166.958 91.9323 167.154C92.3897 167.341 92.7443 167.625 92.9963 168.008C93.2577 168.391 93.3883 168.871 93.3883 169.45V172.292C93.3883 172.647 93.5563 172.824 93.8923 172.824C94.051 172.824 94.2003 172.801 94.3403 172.754L94.2283 173.944C93.9857 174.065 93.6823 174.126 93.3183 174.126C92.9917 174.126 92.6977 174.07 92.4363 173.958C92.175 173.846 91.9697 173.678 91.8203 173.454C91.671 173.221 91.5963 172.931 91.5963 172.586V172.53L91.9323 172.474C91.8763 172.829 91.7223 173.132 91.4703 173.384C91.2183 173.627 90.9103 173.813 90.5463 173.944C90.1917 174.075 89.823 174.14 89.4403 174.14C88.9643 174.14 88.5537 174.07 88.2083 173.93C87.863 173.781 87.597 173.566 87.4103 173.286C87.2237 173.006 87.1303 172.661 87.1303 172.25C87.1303 171.727 87.2983 171.303 87.6343 170.976C87.9703 170.64 88.451 170.411 89.0763 170.29L91.7083 169.758L91.6943 170.948L90.0143 171.284C89.697 171.349 89.4543 171.438 89.2863 171.55C89.1277 171.653 89.0483 171.825 89.0483 172.068C89.0483 172.301 89.1323 172.479 89.3003 172.6C89.4777 172.721 89.6877 172.782 89.9303 172.782C90.1263 172.782 90.3177 172.759 90.5043 172.712C90.691 172.665 90.859 172.591 91.0083 172.488C91.1577 172.385 91.2743 172.245 91.3583 172.068C91.4423 171.891 91.4843 171.676 91.4843 171.424V169.534ZM98.152 174.14C97.5734 174.14 97.0554 173.995 96.598 173.706C96.15 173.417 95.7954 173.001 95.534 172.46C95.282 171.919 95.156 171.27 95.156 170.514C95.156 169.739 95.2914 169.081 95.562 168.54C95.8327 167.989 96.1967 167.574 96.654 167.294C97.1207 167.005 97.6434 166.86 98.222 166.86C98.838 166.86 99.3467 167.037 99.748 167.392C100.149 167.747 100.411 168.204 100.532 168.764L100.35 168.988V163.934H102.268V174H100.546L100.42 171.872L100.658 171.984C100.593 172.423 100.443 172.805 100.21 173.132C99.9767 173.449 99.6827 173.697 99.328 173.874C98.9734 174.051 98.5814 174.14 98.152 174.14ZM98.712 172.67C99.048 172.67 99.3374 172.586 99.58 172.418C99.8227 172.241 100.009 171.984 100.14 171.648C100.28 171.312 100.35 170.911 100.35 170.444C100.35 169.996 100.285 169.618 100.154 169.31C100.023 168.993 99.8367 168.75 99.594 168.582C99.3514 168.414 99.0667 168.33 98.74 168.33C98.2174 168.33 97.8067 168.517 97.508 168.89C97.2187 169.254 97.074 169.791 97.074 170.5C97.074 171.209 97.2187 171.751 97.508 172.124C97.7974 172.488 98.1987 172.67 98.712 172.67ZM116.669 171.452C116.491 172.049 116.211 172.549 115.829 172.95C115.446 173.351 114.993 173.65 114.471 173.846C113.948 174.042 113.374 174.14 112.749 174.14C111.834 174.14 111.041 173.949 110.369 173.566C109.706 173.183 109.193 172.637 108.829 171.928C108.474 171.219 108.297 170.369 108.297 169.38C108.297 168.391 108.474 167.541 108.829 166.832C109.193 166.123 109.706 165.577 110.369 165.194C111.041 164.811 111.825 164.62 112.721 164.62C113.355 164.62 113.929 164.709 114.443 164.886C114.956 165.054 115.39 165.315 115.745 165.67C116.109 166.025 116.375 166.473 116.543 167.014L114.793 167.756C114.634 167.196 114.391 166.799 114.065 166.566C113.738 166.323 113.318 166.202 112.805 166.202C112.301 166.202 111.857 166.323 111.475 166.566C111.101 166.809 110.812 167.168 110.607 167.644C110.401 168.111 110.299 168.689 110.299 169.38C110.299 170.061 110.392 170.64 110.579 171.116C110.775 171.592 111.059 171.951 111.433 172.194C111.806 172.437 112.263 172.558 112.805 172.558C113.309 172.558 113.743 172.423 114.107 172.152C114.48 171.881 114.741 171.471 114.891 170.92L116.669 171.452ZM121.311 166.86C122.021 166.86 122.641 167.005 123.173 167.294C123.715 167.583 124.135 167.999 124.433 168.54C124.741 169.081 124.895 169.735 124.895 170.5C124.895 171.256 124.741 171.909 124.433 172.46C124.135 173.001 123.715 173.417 123.173 173.706C122.641 173.995 122.021 174.14 121.311 174.14C120.611 174.14 119.991 173.995 119.449 173.706C118.908 173.417 118.483 173.001 118.175 172.46C117.877 171.909 117.727 171.256 117.727 170.5C117.727 169.735 117.877 169.081 118.175 168.54C118.483 167.999 118.908 167.583 119.449 167.294C119.991 167.005 120.611 166.86 121.311 166.86ZM121.311 168.288C120.957 168.288 120.653 168.372 120.401 168.54C120.159 168.699 119.972 168.941 119.841 169.268C119.711 169.595 119.645 170.005 119.645 170.5C119.645 170.995 119.711 171.405 119.841 171.732C119.972 172.059 120.159 172.306 120.401 172.474C120.653 172.633 120.957 172.712 121.311 172.712C121.657 172.712 121.951 172.633 122.193 172.474C122.445 172.306 122.637 172.059 122.767 171.732C122.898 171.405 122.963 170.995 122.963 170.5C122.963 170.005 122.898 169.595 122.767 169.268C122.637 168.941 122.445 168.699 122.193 168.54C121.951 168.372 121.657 168.288 121.311 168.288ZM131.01 167H132.998L130.338 174H128.126L125.466 167H127.51L129.246 172.53L131.01 167ZM137.227 174.14C136.489 174.14 135.845 173.995 135.295 173.706C134.753 173.417 134.333 173.001 134.035 172.46C133.736 171.919 133.587 171.265 133.587 170.5C133.587 169.735 133.736 169.081 134.035 168.54C134.333 167.999 134.749 167.583 135.281 167.294C135.822 167.005 136.438 166.86 137.129 166.86C137.838 166.86 138.44 167.005 138.935 167.294C139.429 167.574 139.807 167.961 140.069 168.456C140.33 168.941 140.461 169.497 140.461 170.122C140.461 170.309 140.456 170.486 140.447 170.654C140.437 170.822 140.423 170.971 140.405 171.102H134.819V169.772H139.565L138.641 170.108C138.641 169.52 138.505 169.067 138.235 168.75C137.973 168.433 137.6 168.274 137.115 168.274C136.76 168.274 136.452 168.358 136.191 168.526C135.939 168.694 135.747 168.946 135.617 169.282C135.486 169.609 135.421 170.024 135.421 170.528C135.421 171.023 135.491 171.433 135.631 171.76C135.78 172.077 135.985 172.315 136.247 172.474C136.517 172.633 136.839 172.712 137.213 172.712C137.623 172.712 137.955 172.633 138.207 172.474C138.459 172.315 138.655 172.096 138.795 171.816L140.321 172.404C140.171 172.768 139.943 173.081 139.635 173.342C139.336 173.603 138.977 173.804 138.557 173.944C138.146 174.075 137.703 174.14 137.227 174.14ZM142.086 174V167H143.752L143.878 168.372C144.065 167.887 144.335 167.513 144.69 167.252C145.054 166.991 145.507 166.86 146.048 166.86C146.207 166.86 146.351 166.874 146.482 166.902C146.613 166.93 146.72 166.967 146.804 167.014L146.58 168.624C146.487 168.587 146.37 168.559 146.23 168.54C146.099 168.521 145.927 168.512 145.712 168.512C145.432 168.512 145.161 168.582 144.9 168.722C144.639 168.853 144.424 169.058 144.256 169.338C144.088 169.609 144.004 169.954 144.004 170.374V174H142.086ZM154.14 164.76V174H152.208V164.76H154.14ZM156.305 174V167H158.027L158.097 168.26C158.33 167.793 158.648 167.443 159.049 167.21C159.46 166.977 159.912 166.86 160.407 166.86C160.911 166.86 161.364 166.977 161.765 167.21C162.176 167.443 162.484 167.789 162.689 168.246C162.838 167.938 163.039 167.681 163.291 167.476C163.543 167.271 163.823 167.117 164.131 167.014C164.439 166.911 164.752 166.86 165.069 166.86C165.526 166.86 165.942 166.953 166.315 167.14C166.698 167.327 167.001 167.607 167.225 167.98C167.449 168.353 167.561 168.829 167.561 169.408V174H165.643V169.786C165.643 169.273 165.531 168.909 165.307 168.694C165.083 168.479 164.794 168.372 164.439 168.372C164.159 168.372 163.898 168.442 163.655 168.582C163.422 168.722 163.235 168.932 163.095 169.212C162.964 169.483 162.899 169.823 162.899 170.234V174H160.981V169.786C160.981 169.273 160.864 168.909 160.631 168.694C160.407 168.479 160.118 168.372 159.763 168.372C159.52 168.372 159.278 168.437 159.035 168.568C158.802 168.699 158.606 168.904 158.447 169.184C158.298 169.464 158.223 169.833 158.223 170.29V174H156.305ZM173.529 169.534C173.529 169.133 173.413 168.82 173.179 168.596C172.955 168.372 172.657 168.26 172.283 168.26C171.938 168.26 171.635 168.349 171.373 168.526C171.112 168.703 170.921 168.997 170.799 169.408L169.161 168.904C169.32 168.288 169.665 167.793 170.197 167.42C170.739 167.047 171.462 166.86 172.367 166.86C172.983 166.86 173.52 166.958 173.977 167.154C174.435 167.341 174.789 167.625 175.041 168.008C175.303 168.391 175.433 168.871 175.433 169.45V172.292C175.433 172.647 175.601 172.824 175.937 172.824C176.096 172.824 176.245 172.801 176.385 172.754L176.273 173.944C176.031 174.065 175.727 174.126 175.363 174.126C175.037 174.126 174.743 174.07 174.481 173.958C174.22 173.846 174.015 173.678 173.865 173.454C173.716 173.221 173.641 172.931 173.641 172.586V172.53L173.977 172.474C173.921 172.829 173.767 173.132 173.515 173.384C173.263 173.627 172.955 173.813 172.591 173.944C172.237 174.075 171.868 174.14 171.485 174.14C171.009 174.14 170.599 174.07 170.253 173.93C169.908 173.781 169.642 173.566 169.455 173.286C169.269 173.006 169.175 172.661 169.175 172.25C169.175 171.727 169.343 171.303 169.679 170.976C170.015 170.64 170.496 170.411 171.121 170.29L173.753 169.758L173.739 170.948L172.059 171.284C171.742 171.349 171.499 171.438 171.331 171.55C171.173 171.653 171.093 171.825 171.093 172.068C171.093 172.301 171.177 172.479 171.345 172.6C171.523 172.721 171.733 172.782 171.975 172.782C172.171 172.782 172.363 172.759 172.549 172.712C172.736 172.665 172.904 172.591 173.053 172.488C173.203 172.385 173.319 172.245 173.403 172.068C173.487 171.891 173.529 171.676 173.529 171.424V169.534ZM184.087 165.334L184.311 166.706C184.274 166.706 184.232 166.706 184.185 166.706C184.148 166.697 184.106 166.692 184.059 166.692C183.63 166.692 183.308 166.79 183.093 166.986C182.878 167.173 182.771 167.434 182.771 167.77L181.987 167.448C181.987 167.075 182.062 166.729 182.211 166.412C182.36 166.085 182.58 165.824 182.869 165.628C183.168 165.432 183.522 165.334 183.933 165.334C183.952 165.334 183.975 165.334 184.003 165.334C184.031 165.334 184.059 165.334 184.087 165.334ZM181.791 172.684C182.547 172.684 183.13 172.847 183.541 173.174C183.952 173.501 184.157 173.958 184.157 174.546C184.157 175.078 184.003 175.526 183.695 175.89C183.387 176.263 182.953 176.543 182.393 176.73C181.842 176.917 181.203 177.01 180.475 177.01C179.271 177.01 178.389 176.842 177.829 176.506C177.278 176.17 177.003 175.731 177.003 175.19C177.003 174.807 177.148 174.485 177.437 174.224C177.736 173.963 178.226 173.818 178.907 173.79L178.837 174.014C178.352 173.93 177.978 173.771 177.717 173.538C177.465 173.295 177.339 172.964 177.339 172.544C177.339 172.115 177.502 171.765 177.829 171.494C178.165 171.214 178.618 171.051 179.187 171.004L180.027 171.396H179.831C179.43 171.424 179.145 171.508 178.977 171.648C178.818 171.779 178.739 171.928 178.739 172.096C178.739 172.292 178.814 172.441 178.963 172.544C179.122 172.637 179.346 172.684 179.635 172.684H181.791ZM180.489 175.694C180.974 175.694 181.371 175.652 181.679 175.568C181.996 175.484 182.23 175.377 182.379 175.246C182.538 175.115 182.617 174.971 182.617 174.812C182.617 174.635 182.547 174.49 182.407 174.378C182.267 174.275 182.015 174.224 181.651 174.224H179.285C179.061 174.224 178.874 174.28 178.725 174.392C178.585 174.504 178.515 174.658 178.515 174.854C178.515 175.115 178.688 175.321 179.033 175.47C179.388 175.619 179.873 175.694 180.489 175.694ZM180.503 166.86C181.156 166.86 181.721 166.958 182.197 167.154C182.682 167.341 183.051 167.611 183.303 167.966C183.564 168.321 183.695 168.745 183.695 169.24C183.695 169.725 183.564 170.145 183.303 170.5C183.051 170.855 182.682 171.13 182.197 171.326C181.721 171.513 181.156 171.606 180.503 171.606C179.467 171.606 178.674 171.396 178.123 170.976C177.582 170.547 177.311 169.968 177.311 169.24C177.311 168.745 177.437 168.321 177.689 167.966C177.95 167.611 178.319 167.341 178.795 167.154C179.271 166.958 179.84 166.86 180.503 166.86ZM180.503 168.064C180.13 168.064 179.822 168.167 179.579 168.372C179.336 168.577 179.215 168.862 179.215 169.226C179.215 169.59 179.336 169.879 179.579 170.094C179.822 170.299 180.13 170.402 180.503 170.402C180.876 170.402 181.18 170.299 181.413 170.094C181.656 169.879 181.777 169.59 181.777 169.226C181.777 168.862 181.656 168.577 181.413 168.372C181.18 168.167 180.876 168.064 180.503 168.064ZM188.565 174.14C187.827 174.14 187.183 173.995 186.633 173.706C186.091 173.417 185.671 173.001 185.373 172.46C185.074 171.919 184.925 171.265 184.925 170.5C184.925 169.735 185.074 169.081 185.373 168.54C185.671 167.999 186.087 167.583 186.619 167.294C187.16 167.005 187.776 166.86 188.467 166.86C189.176 166.86 189.778 167.005 190.273 167.294C190.767 167.574 191.145 167.961 191.407 168.456C191.668 168.941 191.799 169.497 191.799 170.122C191.799 170.309 191.794 170.486 191.785 170.654C191.775 170.822 191.761 170.971 191.743 171.102H186.157V169.772H190.903L189.979 170.108C189.979 169.52 189.843 169.067 189.573 168.75C189.311 168.433 188.938 168.274 188.453 168.274C188.098 168.274 187.79 168.358 187.529 168.526C187.277 168.694 187.085 168.946 186.955 169.282C186.824 169.609 186.759 170.024 186.759 170.528C186.759 171.023 186.829 171.433 186.969 171.76C187.118 172.077 187.323 172.315 187.585 172.474C187.855 172.633 188.177 172.712 188.551 172.712C188.961 172.712 189.293 172.633 189.545 172.474C189.797 172.315 189.993 172.096 190.133 171.816L191.659 172.404C191.509 172.768 191.281 173.081 190.973 173.342C190.674 173.603 190.315 173.804 189.895 173.944C189.484 174.075 189.041 174.14 188.565 174.14Z" fill="#1E1E1E"/>
</svg>
